<svg width="180" height="25" viewBox="0 0 180 25" fill="none" xmlns="http://www.w3.org/2000/svg">
<g clip-path="url(#clip0_1207_182)">
<path d="M37.9712 4.93386V20.0001H43.7937C46.6199 20.0001 48.4474 18.2364 48.4474 15.7926C48.4474 13.9226 47.2574 12.5839 45.7912 12.2226C47.0449 11.7976 47.9799 10.5439 47.9799 8.99261C47.9799 6.65511 46.3224 4.93386 43.3899 4.93386H37.9712ZM40.8612 11.1601V7.39886H42.9224C44.3462 7.39886 45.0899 8.12136 45.0899 9.26886C45.0899 10.4164 44.2824 11.1601 42.9437 11.1601H40.8612ZM40.8612 17.5564V13.5826H43.2837C44.7499 13.5826 45.5149 14.4114 45.5149 15.6014C45.5149 16.8126 44.6649 17.5564 43.2412 17.5564H40.8612Z" fill="#2A3B34"/>
<path d="M57.0622 9.50261C56.8497 9.48136 56.6372 9.46011 56.4034 9.46011C55.5109 9.46011 54.0659 9.71511 53.4284 11.0964V9.54511H50.6872V20.0001H53.5134V15.2189C53.5134 12.9664 54.7672 12.2651 56.2122 12.2651C56.4672 12.2651 56.7434 12.2864 57.0622 12.3501V9.50261Z" fill="#2A3B34"/>
<path d="M61.0077 13.5826C61.0714 12.6264 61.8789 11.5214 63.3452 11.5214C64.9602 11.5214 65.6402 12.5414 65.6827 13.5826H61.0077ZM65.9589 16.3026C65.6189 17.2376 64.8964 17.8964 63.5789 17.8964C62.1764 17.8964 61.0077 16.8976 60.9439 15.5164H68.4239C68.4239 15.4739 68.4664 15.0489 68.4664 14.6451C68.4664 11.2876 66.5327 9.22636 63.3027 9.22636C60.6252 9.22636 58.1602 11.3939 58.1602 14.7301C58.1602 18.2576 60.6889 20.3189 63.5577 20.3189C66.1289 20.3189 67.7864 18.8101 68.3177 17.0039L65.9589 16.3026Z" fill="#2A3B34"/>
<path d="M74.177 6.42136H71.627V7.88761C71.627 8.82261 71.117 9.54511 70.012 9.54511H69.4808V12.0526H71.372V16.9189C71.372 18.9376 72.647 20.1489 74.687 20.1489C75.5158 20.1489 76.0258 20.0001 76.2808 19.8939V17.5564C76.132 17.5989 75.7495 17.6414 75.4095 17.6414C74.602 17.6414 74.177 17.3439 74.177 16.4301V12.0526H76.2808V9.54511H74.177V6.42136Z" fill="#2A3B34"/>
<path d="M82.1043 6.42136H79.5543V7.88761C79.5543 8.82261 79.0443 9.54511 77.9393 9.54511H77.408V12.0526H79.2993V16.9189C79.2993 18.9376 80.5743 20.1489 82.6143 20.1489C83.443 20.1489 83.953 20.0001 84.208 19.8939V17.5564C84.0593 17.5989 83.6768 17.6414 83.3368 17.6414C82.5293 17.6414 82.1043 17.3439 82.1043 16.4301V12.0526H84.208V9.54511H82.1043V6.42136Z" fill="#2A3B34"/>
<path d="M85.5528 6.33636C85.5528 7.22886 86.1478 7.86636 87.104 7.86636C87.2953 7.86636 87.444 7.82386 87.5503 7.76011C87.5078 8.73761 86.6153 9.43886 85.8078 9.56636V10.8626C87.1465 10.7351 89.1015 9.69386 89.1015 6.84636C89.1015 5.72011 88.379 4.78511 87.2528 4.78511C86.254 4.78511 85.5528 5.50761 85.5528 6.33636Z" fill="#2A3B34"/>
<path d="M89.2856 17.0889C89.4131 18.2789 90.4969 20.3189 93.6419 20.3189C96.3831 20.3189 97.7006 18.5764 97.7006 16.8764C97.7006 15.3464 96.6594 14.0926 94.5981 13.6676L93.1106 13.3489C92.5369 13.2426 92.1544 12.9239 92.1544 12.4139C92.1544 11.8189 92.7494 11.3726 93.4931 11.3726C94.6831 11.3726 95.1294 12.1589 95.2144 12.7751L97.5731 12.2439C97.4456 11.1176 96.4469 9.22636 93.4719 9.22636C91.2194 9.22636 89.5619 10.7776 89.5619 12.6476C89.5619 14.1139 90.4756 15.3251 92.4944 15.7714L93.8756 16.0901C94.6831 16.2601 95.0019 16.6426 95.0019 17.1101C95.0019 17.6626 94.5556 18.1514 93.6206 18.1514C92.3881 18.1514 91.7719 17.3864 91.7081 16.5576L89.2856 17.0889Z" fill="#2A3B34"/>
<path d="M114.616 20.0001H118.292L112.278 11.5001L118.25 4.93386H114.403L108.368 11.7551V4.93386H105.436V20.0001H108.368V15.8139L110.238 13.7526L114.616 20.0001Z" fill="#2A3B34"/>
<path d="M122.887 20.0001V9.54511H120.061V20.0001H122.887ZM119.721 6.12386C119.721 7.05886 120.507 7.84511 121.463 7.84511C122.441 7.84511 123.206 7.05886 123.206 6.12386C123.206 5.14636 122.441 4.36011 121.463 4.36011C120.507 4.36011 119.721 5.14636 119.721 6.12386Z" fill="#2A3B34"/>
<path d="M129.398 6.42136H126.848V7.88761C126.848 8.82261 126.338 9.54511 125.233 9.54511H124.702V12.0526H126.593V16.9189C126.593 18.9376 127.868 20.1489 129.908 20.1489C130.737 20.1489 131.247 20.0001 131.502 19.8939V17.5564C131.353 17.5989 130.97 17.6414 130.63 17.6414C129.823 17.6414 129.398 17.3439 129.398 16.4301V12.0526H131.502V9.54511H129.398V6.42136Z" fill="#2A3B34"/>
<path d="M138.495 11.8401C139.897 11.8401 140.556 12.7326 140.811 13.6039L143.34 12.7539C142.894 10.9901 141.279 9.22636 138.431 9.22636C135.392 9.22636 133.012 11.5426 133.012 14.7726C133.012 17.9814 135.435 20.3189 138.516 20.3189C141.3 20.3189 142.936 18.5339 143.404 16.7914L140.917 15.9626C140.684 16.7701 139.961 17.7264 138.516 17.7264C137.071 17.7264 135.839 16.6639 135.839 14.7726C135.839 12.8814 137.05 11.8401 138.495 11.8401Z" fill="#2A3B34"/>
<path d="M148.308 13.8589C148.372 12.7114 149.073 11.8189 150.263 11.8189C151.623 11.8189 152.197 12.7326 152.197 13.9014V20.0001H155.023V13.4126C155.023 11.1176 153.791 9.26886 151.135 9.26886C150.136 9.26886 148.988 9.60886 148.308 10.4164V4.61511H145.482V20.0001H148.308V13.8589Z" fill="#2A3B34"/>
<path d="M159.953 13.5826C160.017 12.6264 160.824 11.5214 162.29 11.5214C163.905 11.5214 164.586 12.5414 164.628 13.5826H159.953ZM164.904 16.3026C164.564 17.2376 163.842 17.8964 162.524 17.8964C161.122 17.8964 159.953 16.8976 159.889 15.5164H167.369C167.369 15.4739 167.412 15.0489 167.412 14.6451C167.412 11.2876 165.478 9.22636 162.248 9.22636C159.571 9.22636 157.105 11.3939 157.105 14.7301C157.105 18.2576 159.634 20.3189 162.503 20.3189C165.074 20.3189 166.732 18.8101 167.263 17.0039L164.904 16.3026Z" fill="#2A3B34"/>
<path d="M172.464 13.9864C172.464 12.7751 173.186 11.8189 174.419 11.8189C175.779 11.8189 176.352 12.7326 176.352 13.9014V20.0001H179.179V13.4126C179.179 11.1176 177.989 9.26886 175.396 9.26886C174.27 9.26886 173.016 9.75761 172.379 10.8414V9.54511H169.637V20.0001H172.464V13.9864Z" fill="#2A3B34"/>
<path fill-rule="evenodd" clip-rule="evenodd" d="M2.5 12.5C2.5 11.1838 2.7543 9.9269 3.21646 8.77589L4.10134 9.88213C4.27846 10.1037 4.37496 10.3789 4.37497 10.6626V18.0011C4.32681 18.0423 4.27896 18.0839 4.23141 18.1258C3.13878 16.523 2.5 14.5861 2.5 12.5ZM6.05361 8.32051L4.54698 6.437C6.37409 4.04397 9.25674 2.5 12.5 2.5C15.7432 2.5 18.6259 4.04396 20.453 6.43697L18.9462 8.32065C18.4146 8.98545 18.125 9.81136 18.125 10.6626V16.3374C17.9531 16.2508 17.779 16.1681 17.6029 16.0893C15.9975 15.3714 14.2586 15.0003 12.5 15.0003C10.7413 15.0003 9.00249 15.3714 7.39707 16.0893C7.22096 16.1681 7.04688 16.2508 6.87497 16.3375V10.6625C6.87495 9.81132 6.58521 8.9853 6.05361 8.32051ZM20.625 18.0011C20.6731 18.0423 20.721 18.0839 20.7686 18.1259C21.8612 16.5231 22.5 14.5861 22.5 12.5C22.5 11.1837 22.2457 9.92687 21.7835 8.77585L20.8987 9.88198C20.7216 10.1035 20.625 10.3789 20.625 10.6626V18.0011ZM5.88569 20.0002C7.64849 21.556 9.96401 22.5 12.5 22.5C15.036 22.5 17.3515 21.556 19.1143 20.0002C18.359 19.3342 17.5057 18.7845 16.5823 18.3715C15.298 17.7972 13.9069 17.5003 12.5 17.5003C11.0931 17.5003 9.70199 17.7972 8.41765 18.3715C7.49425 18.7845 6.64096 19.3342 5.88569 20.0002ZM12.5 0C5.59644 0 0 5.59644 0 12.5C0 19.4036 5.59644 25 12.5 25C19.4036 25 25 19.4036 25 12.5C25 5.59644 19.4036 0 12.5 0Z" fill="#2A3B34"/>
</g>
<defs>
<clipPath id="clip0_1207_182">
<rect width="179.179" height="25" fill="white"/>
</clipPath>
</defs>
</svg>
