<svg width="30" height="30" viewBox="0 0 30 30" fill="none" xmlns="http://www.w3.org/2000/svg">
<path d="M21.2999 9.92101C21.2999 13.3281 15.0005 22.6709 15.0005 22.6709C15.0005 22.6709 8.70117 13.3281 8.70117 9.92101C8.70952 9.10219 8.87909 8.29303 9.2002 7.53975C9.52131 6.78647 9.98767 6.10382 10.5726 5.5308C11.1576 4.95778 11.8497 4.50561 12.6095 4.20012C13.3692 3.89462 14.1817 3.74179 15.0005 3.75034C16.6542 3.73331 18.2468 4.37385 19.4282 5.53107C20.6095 6.68829 21.2828 8.26739 21.2999 9.92101Z" stroke="black" stroke-width="2" stroke-linecap="square" stroke-linejoin="round"/>
<path d="M10.0505 20.1074H7.0997C6.91075 20.1074 6.72658 20.1668 6.5733 20.2773C6.42002 20.3878 6.3054 20.5437 6.24569 20.723L5.04611 24.3226C5.00108 24.4578 4.9888 24.6018 5.01029 24.7427C5.03178 24.8836 5.08643 25.0173 5.16973 25.133C5.25303 25.2486 5.3626 25.3428 5.48943 25.4078C5.61626 25.4728 5.75671 25.5068 5.89923 25.5069H24.1008C24.2433 25.5068 24.3837 25.4728 24.5106 25.4078C24.6374 25.3428 24.747 25.2486 24.8303 25.133C24.9136 25.0173 24.9682 24.8836 24.9897 24.7427C25.0112 24.6018 24.9989 24.4578 24.9539 24.3226L23.7543 20.723C23.6946 20.5437 23.58 20.3878 23.4267 20.2773C23.2734 20.1668 23.0892 20.1074 22.9003 20.1074H19.9495" stroke="black" stroke-width="2" stroke-linecap="square" stroke-linejoin="round"/>
<circle cx="14.9995" cy="10.5025" r="2.69973" stroke="black" stroke-width="2" stroke-linecap="square" stroke-linejoin="round"/>
</svg>
